<?xml version="1.0" encoding="UTF-8" standalone="no"?><!-- Generator: Gravit.io --><svg xmlns="http://www.w3.org/2000/svg" xmlns:xlink="http://www.w3.org/1999/xlink" style="isolation:isolate" viewBox="0 0 512 512" width="512pt" height="512pt"><defs><clipPath id="_clipPath_wayGDMCt3J9aZ9fotNfaiLf2egjf1kez"><rect width="512" height="512"/></clipPath></defs><g clip-path="url(#_clipPath_wayGDMCt3J9aZ9fotNfaiLf2egjf1kez)"><path d=" M 381.242 262.348 L 381.242 262.348 L 381.242 262.348 Q 381.242 333.832 341.887 372.504 L 341.887 372.504 L 341.887 372.504 Q 302.531 411.176 231.242 411.176 L 231.242 411.176 L 138.859 411.176 L 138.859 125.629 L 237.688 125.629 L 237.688 125.629 Q 306.438 125.629 343.84 160.785 L 343.84 160.785 L 343.84 160.785 Q 381.242 195.941 381.242 262.348 Z  M 301.164 265.082 L 301.164 265.082 L 301.164 265.082 Q 301.164 225.824 285.637 206.879 L 285.637 206.879 L 285.637 206.879 Q 270.109 187.934 238.469 187.934 L 238.469 187.934 L 216.008 187.934 L 216.008 347.895 L 233.195 347.895 L 233.195 347.895 Q 268.352 347.895 284.758 327.484 L 284.758 327.484 L 284.758 327.484 Q 301.164 307.074 301.164 265.082 Z " fill="rgb(116,116,116)"/></g></svg>